<svg xmlns="http://www.w3.org/2000/svg" version="1.1" xmlns:xlink="http://www.w3.org/1999/xlink" width="1000" height="1000"><g clip-path="url(#SvgjsClipPath1009)"><rect width="1000" height="1000" fill="#ffffff"></rect><g transform="matrix(0.875,0,0,0.875,150,150)"><svg xmlns="http://www.w3.org/2000/svg" version="1.1" xmlns:xlink="http://www.w3.org/1999/xlink" width="800px" height="800px"><svg height="800px" width="800px" version="1.1" id="Layer_1" xmlns="http://www.w3.org/2000/svg" xmlns:xlink="http://www.w3.org/1999/xlink" viewBox="0 0 512 512" xml:space="preserve">
<g transform="translate(1 1)">
	<path style="fill:#63D3FD;" d="M255,127H75.8l29.867,234.667c2.56,17.067,17.067,29.867,34.133,29.867H255h114.347
		c17.067,0,32.427-12.8,34.133-29.867L434.2,127H255z"></path>
	<path style="fill:#FFE100;" d="M434.2,127H75.8c-9.387,0-17.067-7.68-17.067-17.067s7.68-17.067,17.067-17.067h358.4
		c9.387,0,17.067,7.68,17.067,17.067S443.587,127,434.2,127"></path>
	<path style="fill:#FFA800;" d="M425.667,109.933c0-9.387-7.68-17.067-17.067-17.067h25.6c9.387,0,17.067,7.68,17.067,17.067
		S443.587,127,434.2,127h-25.6C417.987,127,425.667,119.32,425.667,109.933"></path>
	<path style="fill:#FFFFFF;" d="M84.333,109.933c0-9.387,7.68-17.067,17.067-17.067H75.8c-9.387,0-17.067,7.68-17.067,17.067
		S66.413,127,75.8,127h25.6C92.013,127,84.333,119.32,84.333,109.933"></path>
	<path style="fill:#FFE100;" d="M393.24,92.867c-28.16-18.773-54.613-40.96-79.36-64C299.373,16.067,278.893,7.533,255,7.533
		s-44.373,8.533-58.88,21.333c-24.747,23.04-51.2,45.227-79.36,64H393.24z"></path>
	<path style="fill:#FFA800;" d="M312.173,28.867c-13.653-12.8-34.987-21.333-58.88-21.333c-5.973,0-11.093,0.853-16.213,1.707
		c17.067,2.56,31.573,10.24,42.667,19.627c24.747,23.04,51.2,45.227,79.36,64h32.427C363.373,74.093,336.92,51.907,312.173,28.867"></path>
	<path style="fill:#FFFFFF;" d="M196.973,28.867c14.507-12.8,34.987-21.333,58.88-21.333c5.973,0,11.093,0.853,16.213,1.707
		C255,11.8,240.493,19.48,229.4,28.867c-24.747,23.04-51.2,45.227-79.36,64h-32.427C145.773,74.093,172.227,51.907,196.973,28.867"></path>
	<g>
		<path style="fill:#FFE100;" d="M255,306.2c-11.947,0-23.893-2.56-34.133-6.827V357.4c0,18.773,15.36,34.133,34.133,34.133
			s34.133-15.36,34.133-34.133v-58.027C278.893,303.64,266.947,306.2,255,306.2"></path>
		<path style="fill:#FFE100;" d="M289.133,349.72v7.68c0,18.773-15.36,34.133-34.133,34.133s-34.133-15.36-34.133-34.133v-7.68
			c-76.8,8.533-136.533,73.387-136.533,152.747l0,0h341.333l0,0C425.667,423.107,365.933,358.253,289.133,349.72"></path>
	</g>
	<path style="fill:#FFA800;" d="M289.133,349.72v5.12c64,18.773,110.933,77.653,110.933,147.627l0,0h25.6l0,0
		C425.667,423.107,365.933,358.253,289.133,349.72"></path>
	<path style="fill:#FFFFFF;" d="M220.867,349.72v5.12c-64,18.773-110.933,77.653-110.933,147.627l0,0h-25.6l0,0
		C84.333,423.107,144.067,358.253,220.867,349.72"></path>
	<path style="fill:#63D3FD;" d="M348.867,502.467H161.133v-41.813c0-14.507,11.947-26.453,26.453-26.453h134.827
		c14.507,0,26.453,11.947,26.453,26.453V502.467z"></path>
	<path style="fill:#3DB9F9;" d="M322.413,434.2h-25.6c14.507,0,26.453,11.947,26.453,26.453v41.813h25.6v-41.813
		C348.867,446.147,336.92,434.2,322.413,434.2"></path>
	<g>
		<path style="fill:#FDCC00;" d="M348.867,161.133c-3.413,0-5.973,0.853-8.533,1.707v47.787c2.56,0.853,5.12,1.707,8.533,1.707
			c14.507,0,25.6-11.093,25.6-25.6C374.467,172.227,363.373,161.133,348.867,161.133"></path>
		<path style="fill:#FDCC00;" d="M161.133,212.333c3.413,0,5.973-0.853,8.533-1.707V162.84c-2.56-0.853-5.12-1.707-8.533-1.707
			c-14.507,0-25.6,11.093-25.6,25.6C135.533,201.24,146.627,212.333,161.133,212.333"></path>
		<path style="fill:#FDCC00;" d="M173.933,127c-2.56,7.68-4.267,17.067-4.267,25.6v68.267c0,46.933,38.4,85.333,85.333,85.333
			s85.333-38.4,85.333-85.333V152.6c0-8.533-1.707-17.92-4.267-25.6H173.933z"></path>
	</g>
	<path style="fill:#FFA800;" d="M336.067,127h-25.6c2.56,7.68,4.267,17.067,4.267,25.6v68.267c0,42.667-31.573,78.507-72.533,84.48
		c4.267,0.853,8.533,0.853,12.8,0.853c46.933,0,85.333-38.4,85.333-85.333V152.6C340.333,144.067,338.627,134.68,336.067,127"></path>
	<path d="M425.667,511H84.333c-5.12,0-8.533-3.413-8.533-8.533c0-82.773,62.293-151.893,144.213-161.28
		c2.56,0,5.12,0.853,6.827,1.707c1.707,0.853,2.56,4.267,2.56,5.973v8.533c0,14.507,11.093,25.6,25.6,25.6s25.6-11.093,25.6-25.6
		v-7.68c0-2.56,0.853-5.12,2.56-5.973c1.707-0.853,4.267-2.56,6.827-1.707c81.92,8.533,144.213,77.653,144.213,160.427
		C434.2,507.587,430.787,511,425.667,511z M92.867,493.933h324.267c-4.267-67.413-52.907-122.88-119.467-133.973
		c-0.853,22.187-19.627,40.107-42.667,40.107s-41.813-17.92-42.667-40.107C146.627,371.053,97.133,426.52,92.867,493.933z"></path>
	<path d="M255,400.067c-23.893,0-42.667-18.773-42.667-42.667v-58.027c0-2.56,1.707-5.973,4.267-6.827
		c2.56-0.853,5.12-1.707,7.68-0.853c19.627,8.533,41.813,8.533,61.44,0c2.56-0.853,5.973-0.853,7.68,0.853
		c2.56,1.707,4.267,4.267,4.267,6.827V357.4C297.667,381.293,278.893,400.067,255,400.067z M229.4,311.32v46.08
		c0,14.507,11.093,25.6,25.6,25.6c14.507,0,25.6-11.093,25.6-25.6v-46.08C264.387,315.587,245.613,315.587,229.4,311.32z"></path>
	<path d="M255,314.733c-52.053,0-93.867-41.813-93.867-93.867V152.6c0-9.387,1.707-18.773,4.267-28.16
		c0.853-3.413,4.267-5.973,8.533-5.973H336.92c3.413,0,6.827,2.56,8.533,5.973c2.56,9.387,4.267,18.773,4.267,28.16v68.267
		C348.867,272.92,307.053,314.733,255,314.733z M179.907,135.533c-0.853,5.973-1.707,11.093-1.707,17.067v68.267
		c0,42.667,34.133,76.8,76.8,76.8s76.8-34.133,76.8-76.8V152.6c0-5.973-0.853-11.093-1.707-17.067H179.907z"></path>
	<path d="M348.867,511H161.133c-5.12,0-8.533-3.413-8.533-8.533v-41.813c0-18.773,15.36-34.987,34.987-34.987h134.827
		c18.773,0,34.987,15.36,34.987,34.987v41.813C357.4,507.587,353.987,511,348.867,511z M169.667,493.933h170.667v-33.28
		c0-9.387-7.68-17.92-17.92-17.92H187.587c-9.387,0-17.92,7.68-17.92,17.92V493.933z"></path>
	<path d="M323.267,442.733c-5.12,0-8.533-3.413-8.533-8.533v-42.667c0-5.12,3.413-8.533,8.533-8.533c5.12,0,8.533,3.413,8.533,8.533
		V434.2C331.8,439.32,328.387,442.733,323.267,442.733z"></path>
	<path d="M186.733,442.733c-5.12,0-8.533-3.413-8.533-8.533v-42.667c0-5.12,3.413-8.533,8.533-8.533c5.12,0,8.533,3.413,8.533,8.533
		V434.2C195.267,439.32,191.853,442.733,186.733,442.733z"></path>
	<path d="M348.867,220.867c-3.413,0-7.68-0.853-11.093-1.707s-5.973-4.267-5.973-7.68v-47.787c0-3.413,2.56-6.827,5.973-7.68
		C360.813,147.48,383,165.4,383,188.44C383,205.507,367.64,220.867,348.867,220.867z M348.867,169.667V203.8
		c9.387,0,17.067-7.68,17.067-17.067C365.933,177.347,358.253,169.667,348.867,169.667z"></path>
	<path d="M161.133,220.867c-18.773,0-34.133-15.36-34.133-34.133c0-22.187,22.187-40.107,45.227-32.427
		c3.413,0.853,5.973,4.267,5.973,7.68v47.787c0,3.413-2.56,6.827-5.973,7.68C168.813,220.013,164.547,220.867,161.133,220.867z
		 M161.133,169.667c-9.387,0-17.067,7.68-17.067,17.067c0,9.387,7.68,17.067,17.067,17.067V169.667z"></path>
	<path d="M434.2,135.533H75.8c-14.507,0-25.6-11.093-25.6-25.6s11.093-25.6,25.6-25.6h358.4c14.507,0,25.6,11.093,25.6,25.6
		S448.707,135.533,434.2,135.533z M75.8,101.4c-5.12,0-8.533,3.413-8.533,8.533s3.413,8.533,8.533,8.533h358.4
		c5.12,0,8.533-3.413,8.533-8.533s-3.413-8.533-8.533-8.533H75.8z"></path>
	<path d="M393.24,101.4H116.76c-3.413,0-6.827-2.56-8.533-5.973c-0.853-3.413,0-7.68,3.413-9.387
		c24.747-16.213,49.493-35.84,78.507-63.147C206.36,7.533,230.253-1,255-1s48.64,8.533,64.853,23.893
		c29.013,26.453,53.76,46.933,78.507,63.147c3.413,1.707,4.267,5.973,3.413,9.387C400.067,98.84,396.653,101.4,393.24,101.4z
		 M144.067,84.333h221.867c-17.92-13.653-37.547-29.867-58.027-49.493C295.107,22.893,275.48,16.067,255,16.067
		s-40.107,6.827-52.907,18.773C180.76,54.467,161.987,70.68,144.067,84.333z"></path>
	<path d="M369.347,400.067H140.653c-21.333,0-40.107-16.213-42.667-37.547l-30.72-234.667c0-2.56,0.853-5.12,1.707-6.827
		c1.707-1.707,4.267-2.56,6.827-2.56h358.4c2.56,0,5.12,0.853,6.827,2.56c1.707,1.707,2.56,4.267,1.707,6.827L412.867,362.52
		C409.453,383.853,391.533,400.067,369.347,400.067z M85.187,135.533L114.2,359.96C115.907,373.613,127,383,140.653,383H370.2
		c12.8,0,23.893-9.387,25.6-23.04l29.013-224.427H85.187z"></path>
</g>
</svg></svg></g></g><defs><clipPath id="SvgjsClipPath1009"><rect width="1000" height="1000" x="0" y="0" rx="350" ry="350"></rect></clipPath></defs></svg>